# xmcd CD database file
#
# Track frame offsets:
#	150
#	12440
#	24667
#	40322
#
# Disc length: 742 seconds
#
# Revision: 0
# Processed by: cddbd v1.5.1PL2 Copyright (c) Steve Scherf et al.
# Submitted via: CDex 1.51
#
DISCID=2a02e404
DTITLE=佐藤英樹 - BUNRI'S School Song
DYEAR=2001
DGENRE=Soul
TTITLE0=校歌
TTITLE1=校歌(Instrumental)
TTITLE2=文理賛歌-The Theme Song of the BUNRI Festival-
TTITLE3=文理賛歌(Instrumental)
EXTD=YEAR: 2001
EXTT0=
EXTT1=
EXTT2=
EXTT3=
PLAYORDER=
